<svg xmlns="http://www.w3.org/2000/svg" viewBox="0 0 400 400" width="400" height="400">
  <circle cx="200" cy="200" r="200" fill="#F39C12"/>
  <!-- Ears -->
  <polygon points="120,130 145,60 185,130" fill="#E8A040"/>
  <polygon points="280,130 255,60 215,130" fill="#E8A040"/>
  <polygon points="130,125 150,75 178,125" fill="#FFB6C1"/>
  <polygon points="270,125 250,75 222,125" fill="#FFB6C1"/>
  <!-- Head -->
  <circle cx="200" cy="210" r="95" fill="#E8A040"/>
  <!-- Eyes -->
  <ellipse cx="168" cy="195" rx="18" ry="20" fill="#FFF"/>
  <ellipse cx="232" cy="195" rx="18" ry="20" fill="#FFF"/>
  <ellipse cx="170" cy="198" rx="10" ry="14" fill="#2ECC71"/>
  <ellipse cx="234" cy="198" rx="10" ry="14" fill="#2ECC71"/>
  <ellipse cx="170" cy="198" rx="5" ry="12" fill="#2C3E50"/>
  <ellipse cx="234" cy="198" rx="5" ry="12" fill="#2C3E50"/>
  <!-- Nose -->
  <polygon points="200,225 193,235 207,235" fill="#FFB6C1"/>
  <!-- Mouth -->
  <path d="M193,235 Q185,248 175,245" stroke="#2C3E50" stroke-width="3" fill="none" stroke-linecap="round"/>
  <path d="M207,235 Q215,248 225,245" stroke="#2C3E50" stroke-width="3" fill="none" stroke-linecap="round"/>
  <!-- Whiskers -->
  <line x1="100" y1="225" x2="165" y2="235" stroke="#2C3E50" stroke-width="2"/>
  <line x1="100" y1="245" x2="165" y2="242" stroke="#2C3E50" stroke-width="2"/>
  <line x1="300" y1="225" x2="235" y2="235" stroke="#2C3E50" stroke-width="2"/>
  <line x1="300" y1="245" x2="235" y2="242" stroke="#2C3E50" stroke-width="2"/>
</svg>