<svg xmlns="http://www.w3.org/2000/svg" viewBox="0 0 400 400" width="400" height="400">
  <circle cx="200" cy="200" r="200" fill="#E74C3C"/>
  <!-- Chef hat puffs -->
  <circle cx="160" cy="100" r="40" fill="#FFF"/>
  <circle cx="200" cy="80" r="45" fill="#FFF"/>
  <circle cx="240" cy="100" r="40" fill="#FFF"/>
  <!-- Chef hat base -->
  <rect x="135" y="110" width="130" height="60" fill="#FFF"/>
  <!-- Face -->
  <circle cx="200" cy="225" r="70" fill="#F5D0A9"/>
  <!-- Eyes -->
  <circle cx="178" cy="215" r="8" fill="#2C3E50"/>
  <circle cx="222" cy="215" r="8" fill="#2C3E50"/>
  <circle cx="180" cy="213" r="3" fill="#FFF"/>
  <circle cx="224" cy="213" r="3" fill="#FFF"/>
  <!-- Rosy cheeks -->
  <circle cx="158" cy="240" r="12" fill="#F5A0A0" opacity="0.6"/>
  <circle cx="242" cy="240" r="12" fill="#F5A0A0" opacity="0.6"/>
  <!-- Smile -->
  <path d="M180 248 Q200 265 220 248" stroke="#C0392B" stroke-width="4" fill="none" stroke-linecap="round"/>
  <!-- Mustache -->
  <path d="M175 238 Q188 230 200 238 Q212 230 225 238" fill="#8B6914"/>
  <!-- Neckerchief -->
  <polygon points="165,290 200,330 235,290" fill="#E74C3C" stroke="#C0392B" stroke-width="2"/>
</svg>