<svg xmlns="http://www.w3.org/2000/svg" viewBox="0 0 400 400" width="400" height="400">
  <circle cx="200" cy="200" r="200" fill="#6C3483"/>
  <!-- Hat -->
  <polygon points="200,30 130,175 270,175" fill="#2C1654"/>
  <ellipse cx="200" cy="175" rx="80" ry="18" fill="#2C1654"/>
  <!-- Hat stars -->
  <polygon points="190,80 193,90 203,90 195,96 198,106 190,100 182,106 185,96 177,90 187,90" fill="#F1C40F"/>
  <circle cx="220" cy="130" r="6" fill="#F1C40F"/>
  <circle cx="170" cy="120" r="4" fill="#F1C40F"/>
  <!-- Hat band -->
  <rect x="125" y="168" width="150" height="12" rx="6" fill="#F1C40F"/>
  <!-- Face -->
  <circle cx="200" cy="235" r="65" fill="#F5D0A9"/>
  <!-- Eyes -->
  <circle cx="180" cy="225" r="10" fill="#2C3E50"/>
  <circle cx="220" cy="225" r="10" fill="#2C3E50"/>
  <circle cx="183" cy="222" r="4" fill="#FFF"/>
  <circle cx="223" cy="222" r="4" fill="#FFF"/>
  <!-- Eyebrows -->
  <path d="M165 210 Q180 200 195 210" stroke="#8B6914" stroke-width="4" fill="none"/>
  <path d="M205 210 Q220 200 235 210" stroke="#8B6914" stroke-width="4" fill="none"/>
  <!-- Smile -->
  <path d="M185 252 Q200 268 215 252" stroke="#C0392B" stroke-width="3" fill="none" stroke-linecap="round"/>
  <!-- Beard -->
  <path d="M155 270 Q200 340 245 270" fill="#E0E0E0"/>
</svg>